  0
SECTION
  2
HEADER
  9
$ACADVER
  1
AC1015
  9
$ACADMAINTVER
 70
     6
  9
$DWGCODEPAGE
  3
ANSI_1251
  9
$INSBASE
 10
0.0
 20
0.0
 30
0.0
  9
$EXTMIN
 10
-25.5176699527
 20
-80.979764921
 30
0.0
  9
$EXTMAX
 10
22.4398115635
 20
0.8318856911
 30
0.0
  9
$LIMMIN
 10
0.0
 20
0.0
  9
$LIMMAX
 10
420.0
 20
297.0
  9
$ORTHOMODE
 70
     0
  9
$REGENMODE
 70
     1
  9
$FILLMODE
 70
     1
  9
$QTEXTMODE
 70
     0
  9
$MIRRTEXT
 70
     1
  9
$LTSCALE
 40
1.0
  9
$ATTMODE
 70
     1
  9
$TEXTSIZE
 40
4.0
  9
$TRACEWID
 40
1.0
  9
$TEXTSTYLE
  7
Standard
  9
$CLAYER
  8
0
  9
$CELTYPE
  6
ByLayer
  9
$CECOLOR
 62
   256
  9
$CELTSCALE
 40
1.0
  9
$DISPSILH
 70
     0
  9
$DIMSCALE
 40
1.0
  9
$DIMASZ
 40
6.0
  9
$DIMEXO
 40
1.0
  9
$DIMDLI
 40
3.75
  9
$DIMRND
 40
0.0
  9
$DIMDLE
 40
0.0
  9
$DIMEXE
 40
1.0
  9
$DIMTP
 40
0.0
  9
$DIMTM
 40
0.0
  9
$DIMTXT
 40
4.0
  9
$DIMCEN
 40
2.5
  9
$DIMTSZ
 40
0.0
  9
$DIMTOL
 70
     0
  9
$DIMLIM
 70
     0
  9
$DIMTIH
 70
     1
  9
$DIMTOH
 70
     1
  9
$DIMSE1
 70
     0
  9
$DIMSE2
 70
     0
  9
$DIMTAD
 70
     1
  9
$DIMZIN
 70
     0
  9
$DIMBLK
  1

  9
$DIMASO
 70
     1
  9
$DIMSHO
 70
     1
  9
$DIMPOST
  1

  9
$DIMAPOST
  1

  9
$DIMALT
 70
     0
  9
$DIMALTD
 70
     3
  9
$DIMALTF
 40
0.0393700787
  9
$DIMLFAC
 40
1.0
  9
$DIMTOFL
 70
     1
  9
$DIMTVP
 40
0.0
  9
$DIMTIX
 70
     0
  9
$DIMSOXD
 70
     0
  9
$DIMSAH
 70
     0
  9
$DIMBLK1
  1

  9
$DIMBLK2
  1

  9
$DIMSTYLE
  2
ISO-25
  9
$DIMCLRD
 70
     0
  9
$DIMCLRE
 70
     0
  9
$DIMCLRT
 70
     0
  9
$DIMTFAC
 40
1.0
  9
$DIMGAP
 40
3.0
  9
$DIMJUST
 70
     0
  9
$DIMSD1
 70
     0
  9
$DIMSD2
 70
     0
  9
$DIMTOLJ
 70
     0
  9
$DIMTZIN
 70
     0
  9
$DIMALTZ
 70
     0
  9
$DIMALTTZ
 70
     0
  9
$DIMUPT
 70
     0
  9
$DIMDEC
 70
     2
  9
$DIMTDEC
 70
     4
  9
$DIMALTU
 70
     2
  9
$DIMALTTD
 70
     3
  9
$DIMTXSTY
  7
Standard
  9
$DIMAUNIT
 70
     0
  9
$DIMADEC
 70
     2
  9
$DIMALTRND
 40
0.0
  9
$DIMAZIN
 70
     0
  9
$DIMDSEP
 70
    44
  9
$DIMATFIT
 70
     3
  9
$DIMFRAC
 70
     0
  9
$DIMLDRBLK
  1

  9
$DIMLUNIT
 70
     2
  9
$DIMLWD
 70
    -2
  9
$DIMLWE
 70
    -2
  9
$DIMTMOVE
 70
     0
  9
$LUNITS
 70
     2
  9
$LUPREC
 70
     2
  9
$SKETCHINC
 40
1.0
  9
$FILLETRAD
 40
10.0
  9
$AUNITS
 70
     0
  9
$AUPREC
 70
     2
  9
$MENU
  1
.
  9
$ELEVATION
 40
0.0
  9
$PELEVATION
 40
0.0
  9
$THICKNESS
 40
0.0
  9
$LIMCHECK
 70
     0
  9
$CHAMFERA
 40
10.0
  9
$CHAMFERB
 40
10.0
  9
$CHAMFERC
 40
20.0
  9
$CHAMFERD
 40
0.0
  9
$SKPOLY
 70
     0
  9
$TDCREATE
 40
2457014.945704028
  9
$TDUCREATE
 40
2457014.820704028
  9
$TDUPDATE
 40
2457014.945759919
  9
$TDUUPDATE
 40
2457014.820759919
  9
$TDINDWG
 40
0.0000000116
  9
$TDUSRTIMER
 40
0.0000000116
  9
$USRTIMER
 70
     1
  9
$ANGBASE
 50
0.0
  9
$ANGDIR
 70
     0
  9
$PDMODE
 70
     0
  9
$PDSIZE
 40
-1.0
  9
$PLINEWID
 40
0.0
  9
$SPLFRAME
 70
     0
  9
$SPLINETYPE
 70
     6
  9
$SPLINESEGS
 70
     8
  9
$HANDSEED
  5
146
  9
$SURFTAB1
 70
     6
  9
$SURFTAB2
 70
     6
  9
$SURFTYPE
 70
     6
  9
$SURFU
 70
     6
  9
$SURFV
 70
     6
  9
$UCSBASE
  2

  9
$UCSNAME
  2

  9
$UCSORG
 10
0.0
 20
0.0
 30
0.0
  9
$UCSXDIR
 10
1.0
 20
0.0
 30
0.0
  9
$UCSYDIR
 10
0.0
 20
1.0
 30
0.0
  9
$UCSORTHOREF
  2

  9
$UCSORTHOVIEW
 70
     0
  9
$UCSORGTOP
 10
0.0
 20
0.0
 30
0.0
  9
$UCSORGBOTTOM
 10
0.0
 20
0.0
 30
0.0
  9
$UCSORGLEFT
 10
0.0
 20
0.0
 30
0.0
  9
$UCSORGRIGHT
 10
0.0
 20
0.0
 30
0.0
  9
$UCSORGFRONT
 10
0.0
 20
0.0
 30
0.0
  9
$UCSORGBACK
 10
0.0
 20
0.0
 30
0.0
  9
$PUCSBASE
  2

  9
$PUCSNAME
  2

  9
$PUCSORG
 10
0.0
 20
0.0
 30
0.0
  9
$PUCSXDIR
 10
1.0
 20
0.0
 30
0.0
  9
$PUCSYDIR
 10
0.0
 20
1.0
 30
0.0
  9
$PUCSORTHOREF
  2

  9
$PUCSORTHOVIEW
 70
     0
  9
$PUCSORGTOP
 10
0.0
 20
0.0
 30
0.0
  9
$PUCSORGBOTTOM
 10
0.0
 20
0.0
 30
0.0
  9
$PUCSORGLEFT
 10
0.0
 20
0.0
 30
0.0
  9
$PUCSORGRIGHT
 10
0.0
 20
0.0
 30
0.0
  9
$PUCSORGFRONT
 10
0.0
 20
0.0
 30
0.0
  9
$PUCSORGBACK
 10
0.0
 20
0.0
 30
0.0
  9
$USERI1
 70
     0
  9
$USERI2
 70
     0
  9
$USERI3
 70
     0
  9
$USERI4
 70
     0
  9
$USERI5
 70
     0
  9
$USERR1
 40
0.0
  9
$USERR2
 40
0.0
  9
$USERR3
 40
0.0
  9
$USERR4
 40
0.0
  9
$USERR5
 40
0.0
  9
$WORLDVIEW
 70
     1
  9
$SHADEDGE
 70
     3
  9
$SHADEDIF
 70
    70
  9
$TILEMODE
 70
     1
  9
$MAXACTVP
 70
    64
  9
$PINSBASE
 10
0.0
 20
0.0
 30
0.0
  9
$PLIMCHECK
 70
     0
  9
$PEXTMIN
 10
1.0000000000E+20
 20
1.0000000000E+20
 30
1.0000000000E+20
  9
$PEXTMAX
 10
-1.0000000000E+20
 20
-1.0000000000E+20
 30
-1.0000000000E+20
  9
$PLIMMIN
 10
0.0
 20
0.0
  9
$PLIMMAX
 10
420.0
 20
297.0
  9
$UNITMODE
 70
     0
  9
$VISRETAIN
 70
     1
  9
$PLINEGEN
 70
     0
  9
$PSLTSCALE
 70
     1
  9
$TREEDEPTH
 70
  3020
  9
$CMLSTYLE
  2
Standard
  9
$CMLJUST
 70
     0
  9
$CMLSCALE
 40
20.0
  9
$PROXYGRAPHICS
 70
     1
  9
$MEASUREMENT
 70
     1
  9
$CELWEIGHT
370
    -1
  9
$ENDCAPS
280
     0
  9
$JOINSTYLE
280
     0
  9
$LWDISPLAY
290
     1
  9
$INSUNITS
 70
     4
  9
$HYPERLINKBASE
  1

  9
$STYLESHEET
  1

  9
$XEDIT
290
     1
  9
$CEPSNTYPE
380
     0
  9
$PSTYLEMODE
290
     1
  9
$FINGERPRINTGUID
  2
{290F3859-479A-4F2D-8DAB-3B3A78E4A5E9}
  9
$VERSIONGUID
  2
{FAEB1C32-E019-11D5-929B-00C0DF256EC4}
  9
$EXTNAMES
290
     1
  9
$PSVPSCALE
 40
0.0
  9
$OLESTARTUP
290
     0
  0
ENDSEC
  0
SECTION
  2
CLASSES
  0
CLASS
  1
ACDBDICTIONARYWDFLT
  2
AcDbDictionaryWithDefault
  3
ObjectDBX Classes
 90
        0
280
     0
281
     0
  0
CLASS
  1
VISUALSTYLE
  2
AcDbVisualStyle
  3
ObjectDBX Classes
 90
     4095
280
     0
281
     0
  0
CLASS
  1
MATERIAL
  2
AcDbMaterial
  3
ObjectDBX Classes
 90
     1153
280
     0
281
     0
  0
CLASS
  1
SCALE
  2
AcDbScale
  3
ObjectDBX Classes
 90
     1153
280
     0
281
     0
  0
CLASS
  1
DICTIONARYVAR
  2
AcDbDictionaryVar
  3
ObjectDBX Classes
 90
        0
280
     0
281
     0
  0
CLASS
  1
ACDBPLACEHOLDER
  2
AcDbPlaceHolder
  3
ObjectDBX Classes
 90
        0
280
     0
281
     0
  0
CLASS
  1
LAYOUT
  2
AcDbLayout
  3
ObjectDBX Classes
 90
        0
280
     0
281
     0
  0
ENDSEC
  0
SECTION
  2
TABLES
  0
TABLE
  2
VPORT
  5
8
330
0
100
AcDbSymbolTable
 70
     1
  0
VPORT
  5
29
330
8
100
AcDbSymbolTableRecord
100
AcDbViewportTableRecord
  2
*Active
 70
     0
 10
0.0
 20
0.0
 11
1.0
 21
1.0
 12
-1.5389291946
 22
-40.073939615
 13
0.0
 23
0.0
 14
10.0
 24
10.0
 15
10.0
 25
10.0
 16
0.0
 26
0.0
 36
1.0
 17
0.0
 27
0.0
 37
0.0
 40
83.4478836243
 41
0.5861937897
 42
50.0
 43
0.0
 44
0.0
 50
0.0
 51
0.0
 71
     0
 72
   100
 73
     1
 74
     3
 75
     0
 76
     0
 77
     0
 78
     0
281
     0
 65
     1
110
0.0
120
0.0
130
0.0
111
1.0
121
0.0
131
0.0
112
0.0
122
1.0
132
0.0
 79
     0
146
0.0
  0
ENDTAB
  0
TABLE
  2
LTYPE
  5
5
330
0
100
AcDbSymbolTable
 70
     6
  0
LTYPE
  5
14
330
5
100
AcDbSymbolTableRecord
100
AcDbLinetypeTableRecord
  2
ByBlock
 70
     0
  3

 72
    65
 73
     0
 40
0.0
  0
LTYPE
  5
15
330
5
100
AcDbSymbolTableRecord
100
AcDbLinetypeTableRecord
  2
ByLayer
 70
     0
  3

 72
    65
 73
     0
 40
0.0
  0
LTYPE
  5
16
330
5
100
AcDbSymbolTableRecord
100
AcDbLinetypeTableRecord
  2
Continuous
 70
     0
  3
Solid line
 72
    65
 73
     0
 40
0.0
  0
LTYPE
  5
3F
330
5
100
AcDbSymbolTableRecord
100
AcDbLinetypeTableRecord
  2
HIDDEN
 70
     0
  3
Hidden __ __ __ __ __ __ __ __ __ __ __ __ __ __
 72
    65
 73
     2
 40
1.905
 49
1.27
 74
     0
 49
-0.635
 74
     0
  0
LTYPE
  5
40
330
5
100
AcDbSymbolTableRecord
100
AcDbLinetypeTableRecord
  2
PHANTOM
 70
     0
  3
Phantom ______  __  __  ______  __  __  ______
 72
    65
 73
     6
 40
12.7
 49
6.35
 74
     0
 49
-1.27
 74
     0
 49
1.27
 74
     0
 49
-1.27
 74
     0
 49
1.27
 74
     0
 49
-1.27
 74
     0
  0
LTYPE
  5
41
330
5
100
AcDbSymbolTableRecord
100
AcDbLinetypeTableRecord
  2
CENTER
 70
     0
  3
Center ____ _ ____ _ ____ _ ____ _ ____ _ ____
 72
    65
 73
     4
 40
10.16
 49
6.35
 74
     0
 49
-1.27
 74
     0
 49
1.27
 74
     0
 49
-1.27
 74
     0
  0
LTYPE
  5
42
330
5
100
AcDbSymbolTableRecord
100
AcDbLinetypeTableRecord
  2
CENTERX2
 70
     0
  3
Center (2x) ________  __  ________  __  _____
 72
    65
 73
     4
 40
20.32
 49
12.7
 74
     0
 49
-2.54
 74
     0
 49
2.54
 74
     0
 49
-2.54
 74
     0
  0
LTYPE
  5
43
330
5
100
AcDbSymbolTableRecord
100
AcDbLinetypeTableRecord
  2
DOT2
 70
     0
  3
Dot (.5x) ........................................
 72
    65
 73
     2
 40
0.635
 49
0.0
 74
     0
 49
-0.635
 74
     0
  0
ENDTAB
  0
TABLE
  2
LAYER
  5
2
330
0
100
AcDbSymbolTable
 70
     1
  0
LAYER
  5
10
330
2
100
AcDbSymbolTableRecord
100
AcDbLayerTableRecord
  2
0
 70
     0
 62
     7
  6
Continuous
370
    -3
390
F
  0
ENDTAB
  0
TABLE
  2
STYLE
  5
3
330
0
100
AcDbSymbolTable
 70
     1
  0
STYLE
  5
11
330
3
100
AcDbSymbolTableRecord
100
AcDbTextStyleTableRecord
  2
Standard
 70
     0
 40
0.0
 41
1.0
 50
0.0
 71
     0
 42
4.0
  3
txt
  4

  0
ENDTAB
  0
TABLE
  2
VIEW
  5
6
330
0
100
AcDbSymbolTable
 70
     0
  0
ENDTAB
  0
TABLE
  2
UCS
  5
7
330
0
100
AcDbSymbolTable
 70
     0
  0
ENDTAB
  0
TABLE
  2
APPID
  5
9
330
0
100
AcDbSymbolTable
 70
     1
  0
APPID
  5
12
330
9
100
AcDbSymbolTableRecord
100
AcDbRegAppTableRecord
  2
ACAD
 70
     0
  0
ENDTAB
  0
TABLE
  2
DIMSTYLE
  5
A
330
0
100
AcDbSymbolTable
 70
     1
100
AcDbDimStyleTable
  0
DIMSTYLE
105
27
330
A
100
AcDbSymbolTableRecord
100
AcDbDimStyleTableRecord
  2
ISO-25
 70
     0
 41
2.5
 42
0.625
 43
3.75
 44
1.25
 73
     0
 74
     0
 77
     1
 78
     8
140
2.5
141
2.5
143
0.0393700787
147
0.625
171
     3
172
     1
178
     0
271
     2
272
     2
274
     3
278
    44
283
     0
284
     8
340
11
  0
ENDTAB
  0
TABLE
  2
BLOCK_RECORD
  5
1
330
0
100
AcDbSymbolTable
 70
     1
  0
BLOCK_RECORD
  5
1F
330
1
100
AcDbSymbolTableRecord
100
AcDbBlockTableRecord
  2
*Model_Space
340
22
  0
BLOCK_RECORD
  5
1B
330
1
100
AcDbSymbolTableRecord
100
AcDbBlockTableRecord
  2
*Paper_Space
340
1E
  0
BLOCK_RECORD
  5
23
330
1
100
AcDbSymbolTableRecord
100
AcDbBlockTableRecord
  2
*Paper_Space0
340
26
  0
ENDTAB
  0
ENDSEC
  0
SECTION
  2
BLOCKS
  0
BLOCK
  5
20
330
1F
100
AcDbEntity
  8
0
100
AcDbBlockBegin
  2
*Model_Space
 70
     0
 10
0.0
 20
0.0
 30
0.0
  3
*Model_Space
  1

  0
ENDBLK
  5
21
330
1F
100
AcDbEntity
  8
0
100
AcDbBlockEnd
  0
BLOCK
  5
1C
330
1B
100
AcDbEntity
 67
     1
  8
0
100
AcDbBlockBegin
  2
*Paper_Space
 70
     0
 10
0.0
 20
0.0
 30
0.0
  3
*Paper_Space
  1

  0
ENDBLK
  5
1D
330
1B
100
AcDbEntity
 67
     1
  8
0
100
AcDbBlockEnd
  0
BLOCK
  5
24
330
23
100
AcDbEntity
  8
0
100
AcDbBlockBegin
  2
*Paper_Space0
 70
     0
 10
0.0
 20
0.0
 30
0.0
  3
*Paper_Space0
  1

  0
ENDBLK
  5
25
330
23
100
AcDbEntity
  8
0
100
AcDbBlockEnd
  0
ENDSEC
  0
SECTION
  2
ENTITIES
  0
LWPOLYLINE
  5
5F
330
1F
100
AcDbEntity
  8
0
  6
Continuous
 62
     7
370
    15
100
AcDbPolyline
 90
       24
 70
   128
 43
0.0
 10
-14.9052809407
 20
0.391150665
 10
-14.88094306
 20
0.3721027924
 10
-14.7659514215
 20
0.3510399936
 10
-14.5688344289
 20
0.3295244
 10
-14.3042113478
 20
0.3091517247
 10
-13.9917080615
 20
0.291432916
 10
-13.6545015093
 20
0.2776820968
 10
-13.3176007584
 20
0.2689191024
 10
-13.0059921964
 20
0.265793844
 10
-12.7427864047
 20
0.2685381078
 10
-12.5475041529
 20
0.2769483643
 10
-12.4346286322
 20
0.2904008632
 10
-12.4125313036
 20
0.3078978942
 10
-12.4828510249
 20
0.3281417826
 10
-12.640372504
 20
0.3496311318
 10
-12.8734130935
 20
0.370772175
 10
-13.1646892389
 20
0.3899969779
 10
-13.492598321
 20
0.4058797246
 10
-13.8328208233
 20
0.4172424646
 10
-14.1601239993
 20
0.4232424754
 10
-14.4502332695
 20
0.4234347637
 10
-14.6816325567
 20
0.4178050682
 10
-14.8371600343
 20
0.4067709179
 10
-14.9052809407
 20
0.391150665
  0
LWPOLYLINE
  5
60
330
1F
100
AcDbEntity
  8
0
  6
Continuous
 62
     7
370
    15
100
AcDbPolyline
 90
       24
 70
   128
 43
0.0
 10
-5.9293563153
 20
0.0583963886
 10
-5.9050184347
 20
0.039348516
 10
-5.7900267961
 20
0.0182857171
 10
-5.5929098035
 20
-0.0032298765
 10
-5.3282867224
 20
-0.0236025517
 10
-5.0157834361
 20
-0.0413213604
 10
-4.6785768839
 20
-0.0550721797
 10
-4.341676133
 20
-0.0638351741
 10
-4.030067571
 20
-0.0669604324
 10
-3.7668617793
 20
-0.0642161686
 10
-3.5715795275
 20
-0.0558059121
 10
-3.4587040068
 20
-0.0423534132
 10
-3.4366066782
 20
-0.0248563822
 10
-3.5069263995
 20
-0.0046124938
 10
-3.6644478786
 20
0.0168768554
 10
-3.8974884681
 20
0.0380178986
 10
-4.1887646135
 20
0.0572427014
 10
-4.5166736957
 20
0.0731254482
 10
-4.856896198
 20
0.0844881882
 10
-5.1841993739
 20
0.090488199
 10
-5.4743086441
 20
0.0906804872
 10
-5.7057079313
 20
0.0850507918
 10
-5.8612354089
 20
0.0740166414
 10
-5.9293563153
 20
0.0583963886
  0
LWPOLYLINE
  5
61
330
1F
100
AcDbEntity
  8
0
  6
Continuous
 62
     7
370
    15
100
AcDbPolyline
 90
       24
 70
   128
 43
0.0
 10
3.0465683101
 20
-0.2743578878
 10
3.0709061907
 20
-0.2934057605
 10
3.1858978293
 20
-0.3144685593
 10
3.3830148219
 20
-0.3359841529
 10
3.647637903
 20
-0.3563568281
 10
3.9601411892
 20
-0.3740756369
 10
4.2973477415
 20
-0.3878264561
 10
4.6342484924
 20
-0.3965894505
 10
4.9458570544
 20
-0.3997147089
 10
5.2090628461
 20
-0.3969704451
 10
5.4043450979
 20
-0.3885601886
 10
5.5172206186
 20
-0.3751076897
 10
5.5393179472
 20
-0.3576106586
 10
5.4689982259
 20
-0.3373667703
 10
5.3114767468
 20
-0.3158774211
 10
5.0784361573
 20
-0.2947363778
 10
4.7871600119
 20
-0.275511575
 10
4.4592509297
 20
-0.2596288283
 10
4.1190284274
 20
-0.2482660883
 10
3.7917252515
 20
-0.2422660774
 10
3.5016159813
 20
-0.2420737892
 10
3.2702166941
 20
-0.2477034846
 10
3.1146892165
 20
-0.258737635
 10
3.0465683101
 20
-0.2743578878
  0
LWPOLYLINE
  5
62
330
1F
100
AcDbEntity
  8
0
  6
Continuous
 62
     7
370
    15
100
AcDbPolyline
 90
       24
 70
   128
 43
0.0
 10
12.0224929354
 20
-0.6071121643
 10
12.0468308161
 20
-0.6261600369
 10
12.1618224547
 20
-0.6472228357
 10
12.3589394473
 20
-0.6687384293
 10
12.6235625284
 20
-0.6891111046
 10
12.9360658146
 20
-0.7068299133
 10
13.2732723669
 20
-0.7205807325
 10
13.6101731178
 20
-0.7293437269
 10
13.9217816798
 20
-0.7324689853
 10
14.1849874715
 20
-0.7297247215
 10
14.3802697233
 20
-0.721314465
 10
14.493145244
 20
-0.7078619661
 10
14.5152425726
 20
-0.6903649351
 10
14.4449228513
 20
-0.6701210467
 10
14.2874013722
 20
-0.6486316975
 10
14.0543607827
 20
-0.6274906543
 10
13.7630846373
 20
-0.6082658514
 10
13.4351755551
 20
-0.5923831047
 10
13.0949530528
 20
-0.5810203647
 10
12.7676498769
 20
-0.5750203539
 10
12.4775406067
 20
-0.5748280656
 10
12.2461413195
 20
-0.5804577611
 10
12.0906138419
 20
-0.5914919114
 10
12.0224929354
 20
-0.6071121643
  0
SPLINE
  5
6F
330
1F
100
AcDbEntity
  8
0
  6
Continuous
 62
     7
370
    15
100
AcDbSpline
210
0.0
220
0.0
230
1.0
 70
     8
 71
     3
 72
    14
 73
    10
 74
     0
 42
0.00000001
 43
0.00000001
 12
1.0
 22
0.0
 32
0.0
 13
1.0
 23
0.0
 33
0.0
 40
0.0
 40
0.0
 40
0.0
 40
0.0
 40
0.25
 40
0.25
 40
0.5
 40
0.5
 40
0.75
 40
0.75
 40
1.0
 40
1.0
 40
1.0
 40
1.0
 10
11.47713550848547
 20
-72.08892231962992
 30
0.0
 10
11.38590244062395
 20
-72.16372309327917
 30
0.0
 10
11.28747822298435
 20
-72.23204191001027
 30
0.0
 10
11.07334616116087
 20
-72.353325506237
 30
0.0
 10
10.95743530721871
 20
-72.40587178057473
 30
0.0
 10
10.72006427772242
 20
-72.48636044979877
 30
0.0
 10
10.59629765361935
 20
-72.51482955380986
 30
0.0
 10
10.35983329558519
 20
-72.54518967874561
 30
0.0
 10
10.24394606125241
 20
-72.54762567484552
 30
0.0
 10
10.13944386983398
 20
-72.54023799286897
 30
0.0
  0
SPLINE
  5
70
330
1F
100
AcDbEntity
  8
0
  6
Continuous
 62
     7
370
    15
100
AcDbSpline
210
0.0
220
0.0
230
1.0
 70
     8
 71
     3
 72
    12
 73
     8
 74
     0
 42
0.00000001
 43
0.00000001
 12
1.0
 22
0.0
 32
0.0
 13
1.0
 23
0.0
 33
0.0
 40
0.0
 40
0.0
 40
0.0
 40
0.0
 40
0.25
 40
0.25
 40
0.5
 40
0.5
 40
1.0
 40
1.0
 40
1.0
 40
1.0
 10
10.27866538696618
 20
-72.4300000881333
 30
0.0
 10
10.39147128561777
 20
-72.43067383790196
 30
0.0
 10
10.51033014366595
 20
-72.42370994937181
 30
0.0
 10
10.75789707302197
 20
-72.387043573242
 30
0.0
 10
10.88011085324456
 20
-72.35824490484798
 30
0.0
 10
11.23755014373282
 20
-72.2384626041783
 30
0.0
 10
11.4451783573842
 20
-72.11934809748149
 30
0.0
 10
11.6132523492462
 20
-71.9811427491025
 30
0.0
  0
LWPOLYLINE
  5
76
330
1F
100
AcDbEntity
  8
0
  6
Continuous
 62
     7
370
    15
100
AcDbPolyline
 90
        9
 70
   128
 43
0.0
 10
10.1394438698
 20
-72.5402379929
 10
9.9008724123
 20
-72.5206767155
 10
9.7250025611
 20
-72.5003348312
 10
9.6234575351
 20
-72.4805567328
 10
9.6029484336
 20
-72.4626495528
 10
9.6648307008
 20
-72.4477967745
 10
9.8050145447
 20
-72.4369800165
 10
10.0142352307
 20
-72.430914157
 10
10.278665387
 20
-72.4300000881
  0
LWPOLYLINE
  5
77
330
1F
100
AcDbEntity
  8
0
  6
Continuous
 62
     7
370
    15
100
AcDbPolyline
 90
       24
 70
   128
 43
0.0
 10
3.1203362041
 20
-72.2223270198
 10
3.0522152977
 20
-72.2379472726
 10
2.8966878201
 20
-72.248981423
 10
2.6652885329
 20
-72.2546111184
 10
2.3751792626
 20
-72.2544188302
 10
2.0478760867
 20
-72.2484188194
 10
1.7076535844
 20
-72.2370560794
 10
1.3797445023
 20
-72.2211733326
 10
1.0884683569
 20
-72.2019485298
 10
0.8554277674
 20
-72.1808074865
 10
0.6979062883
 20
-72.1593181374
 10
0.627586567
 20
-72.139074249
 10
0.6496838956
 20
-72.1215772179
 10
0.7625594163
 20
-72.108124719
 10
0.9578416681
 20
-72.0997144626
 10
1.2210474598
 20
-72.0969701987
 10
1.5326560218
 20
-72.1000954571
 10
1.8695567727
 20
-72.1088584515
 10
2.2067633249
 20
-72.1226092708
 10
2.5192666112
 20
-72.1403280795
 10
2.7838896923
 20
-72.1607007547
 10
2.9810066849
 20
-72.1822163483
 10
3.0959983234
 20
-72.2032791472
 10
3.1203362041
 20
-72.2223270198
  0
LWPOLYLINE
  5
78
330
1F
100
AcDbEntity
  8
0
  6
Continuous
 62
     7
370
    15
100
AcDbPolyline
 90
       24
 70
   128
 43
0.0
 10
-5.8555884213
 20
-71.8895727434
 10
-5.9237093277
 20
-71.9051929962
 10
-6.0792368053
 20
-71.9162271466
 10
-6.3106360925
 20
-71.921856842
 10
-6.6007453628
 20
-71.9216645537
 10
-6.9280485387
 20
-71.9156645429
 10
-7.268271041
 20
-71.9043018029
 10
-7.5961801231
 20
-71.8884190562
 10
-7.8874562685
 20
-71.8691942533
 10
-8.120496858
 20
-71.8480532101
 10
-8.2780183371
 20
-71.8265638609
 10
-8.3483380584
 20
-71.8063199725
 10
-8.3262407298
 20
-71.7888229415
 10
-8.2133652091
 20
-71.7753704426
 10
-8.0180829573
 20
-71.7669601861
 10
-7.7548771656
 20
-71.7642159223
 10
-7.4432686036
 20
-71.7673411807
 10
-7.1063678527
 20
-71.7761041751
 10
-6.7691613005
 20
-71.7898549943
 10
-6.4566580142
 20
-71.8075738031
 10
-6.1920349331
 20
-71.8279464783
 10
-5.9949179405
 20
-71.8494620719
 10
-5.879926302
 20
-71.8705248707
 10
-5.8555884213
 20
-71.8895727434
  0
LWPOLYLINE
  5
79
330
1F
100
AcDbEntity
  8
0
  6
Continuous
 62
     7
370
    15
100
AcDbPolyline
 90
       24
 70
   128
 43
0.0
 10
-14.8315130467
 20
-71.5568184669
 10
-14.8996339531
 20
-71.5724387198
 10
-15.0551614307
 20
-71.5834728701
 10
-15.2865607179
 20
-71.5891025656
 10
-15.5766699882
 20
-71.5889102773
 10
-15.9039731641
 20
-71.5829102665
 10
-16.2441956664
 20
-71.5715475265
 10
-16.5721047485
 20
-71.5556647797
 10
-16.8633808939
 20
-71.5364399769
 10
-17.0964214834
 20
-71.5152989337
 10
-17.2539429625
 20
-71.4938095845
 10
-17.3242626838
 20
-71.4735656961
 10
-17.3021653552
 20
-71.4560686651
 10
-17.1892898345
 20
-71.4426161662
 10
-16.9940075827
 20
-71.4342059097
 10
-16.730801791
 20
-71.4314616459
 10
-16.419193229
 20
-71.4345869042
 10
-16.0822924781
 20
-71.4433498986
 10
-15.7450859259
 20
-71.4571007179
 10
-15.4325826396
 20
-71.4748195266
 10
-15.1679595585
 20
-71.4951922019
 10
-14.9708425659
 20
-71.5167077955
 10
-14.8558509274
 20
-71.5377705943
 10
-14.8315130467
 20
-71.5568184669
  0
SPLINE
  5
82
330
1F
100
AcDbEntity
  8
0
  6
HIDDEN
 62
     7
370
     0
100
AcDbSpline
210
0.0
220
0.0
230
1.0
 70
     8
 71
     3
 72
    14
 73
    10
 74
     0
 42
0.00000001
 43
0.00000001
 12
1.0
 22
0.0
 32
0.0
 13
1.0
 23
0.0
 33
0.0
 40
0.0
 40
0.0
 40
0.0
 40
0.0
 40
0.25
 40
0.25
 40
0.5
 40
0.5
 40
0.75
 40
0.75
 40
1.0
 40
1.0
 40
1.0
 40
1.0
 10
13.73035378840053
 20
-9.107547534165324
 30
0.0
 10
13.65137067741417
 20
-9.026436529114438
 30
0.0
 10
13.56360372532113
 20
-8.951215258257678
 30
0.0
 10
13.36691701588214
 20
-8.814701843524002
 30
0.0
 10
13.25770161021149
 20
-8.753809718619317
 30
0.0
 10
13.02789894596452
 20
-8.65600204874433
 30
0.0
 10
12.90501672930925
 20
-8.618389211918542
 30
0.0
 10
12.66385804819973
 20
-8.570322709597608
 30
0.0
 10
12.54235163971804
 20
-8.5590860881425
 30
0.0
 10
12.42937161086934
 20
-8.558411298355717
 30
0.0
  0
SPLINE
  5
83
330
1F
100
AcDbEntity
  8
0
  6
HIDDEN
 62
     7
370
     0
100
AcDbSpline
210
0.0
220
0.0
230
1.0
 70
     8
 71
     3
 72
    10
 73
     6
 74
     0
 42
0.00000001
 43
0.00000001
 12
1.0
 22
0.0
 32
0.0
 13
1.0
 23
0.0
 33
0.0
 40
0.0
 40
0.0
 40
0.0
 40
0.0
 40
0.5
 40
0.5
 40
1.0
 40
1.0
 40
1.0
 40
1.0
 10
13.59423694764012
 20
-9.21532710469261
 30
0.0
 10
13.74442393872562
 20
-9.321450090523202
 30
0.0
 10
13.84061324011993
 20
-9.403428048540626
 30
0.0
 10
13.88887805583369
 20
-9.365729305129875
 30
0.0
 10
13.83908334083399
 20
-9.24687120043683
 30
0.0
 10
13.73035378840053
 20
-9.107547534165324
 30
0.0
  0
SPLINE
  5
84
330
1F
100
AcDbEntity
  8
0
  6
HIDDEN
 62
     7
370
     0
100
AcDbSpline
210
0.0
220
0.0
230
1.0
 70
     8
 71
     3
 72
    12
 73
     8
 74
     0
 42
0.00000001
 43
0.00000001
 12
1.0
 22
0.0
 32
0.0
 13
1.0
 23
0.0
 33
0.0
 40
0.0
 40
0.0
 40
0.0
 40
0.0
 40
0.2499999999999997
 40
0.2499999999999997
 40
0.4999999999999993
 40
0.4999999999999993
 40
1.0
 40
1.0
 40
1.0
 40
1.0
 10
12.29015009373715
 20
-8.668649203091377
 30
0.0
 10
12.39449122140495
 20
-8.676025498820891
 30
0.0
 10
12.50662592634866
 20
-8.691552749803634
 30
0.0
 10
12.74363304932441
 20
-8.74618319034922
 30
0.0
 10
12.86229098967648
 20
-8.783911422931688
 30
0.0
 10
13.21309619549123
 20
-8.92994966878147
 30
0.0
 10
13.42189592125729
 20
-9.06450193631633
 30
0.0
 10
13.59423694764031
 20
-9.215327104692763
 30
0.0
  0
LWPOLYLINE
  5
89
330
1F
100
AcDbEntity
  8
0
  6
HIDDEN
 62
     7
370
     0
100
AcDbPolyline
 90
        9
 70
   128
 43
0.0
 10
13.5942369476
 20
-9.2153271047
 10
13.8437538398
 20
-9.2138249312
 10
14.0403134823
 20
-9.2075486377
 10
14.1718155394
 20
-9.1968845969
 10
14.230164661
 20
-9.1824892939
 10
14.2117688385
 20
-9.1652489125
 10
14.1177605303
 20
-9.1462247816
 10
13.9539269472
 20
-9.1265880387
 10
13.7303537884
 20
-9.1075475342
  0
LWPOLYLINE
  5
8A
330
1F
100
AcDbEntity
  8
0
  6
HIDDEN
 62
     7
370
     0
100
AcDbPolyline
 90
        9
 70
   128
 43
0.0
 10
12.4293716109
 20
-8.5584112984
 10
12.1649414546
 20
-8.5593253672
 10
11.9557207686
 20
-8.5653912267
 10
11.8155369247
 20
-8.5762079847
 10
11.7536546575
 20
-8.591060763
 10
11.774163759
 20
-8.6089679431
 10
11.875708785
 20
-8.6287460414
 10
12.0515786362
 20
-8.6490879257
 10
12.2901500937
 20
-8.6686492031
  0
LWPOLYLINE
  5
8B
330
1F
100
AcDbEntity
  8
0
  6
HIDDEN
 62
     7
370
     0
100
AcDbPolyline
 90
       24
 70
   128
 43
0.0
 10
2.7777300321
 20
-8.2583064866
 10
2.8020679127
 20
-8.2773543592
 10
2.9170595513
 20
-8.298417158
 10
3.1141765439
 20
-8.3199327516
 10
3.378799625
 20
-8.3403054268
 10
3.6913029113
 20
-8.3580242356
 10
4.0285094635
 20
-8.3717750548
 10
4.3654102144
 20
-8.3805380492
 10
4.6770187764
 20
-8.3836633076
 10
4.9402245681
 20
-8.3809190438
 10
5.1355068199
 20
-8.3725087873
 10
5.2483823406
 20
-8.3590562884
 10
5.2704796692
 20
-8.3415592574
 10
5.2001599479
 20
-8.321315369
 10
5.0426384688
 20
-8.2998260198
 10
4.8095978793
 20
-8.2786849766
 10
4.5183217339
 20
-8.2594601737
 10
4.1904126517
 20
-8.243577427
 10
3.8501901494
 20
-8.232214687
 10
3.5228869735
 20
-8.2262146762
 10
3.2327777033
 20
-8.2260223879
 10
3.0013784161
 20
-8.2316520833
 10
2.8458509385
 20
-8.2426862337
 10
2.7777300321
 20
-8.2583064866
  0
LWPOLYLINE
  5
8E
330
1F
100
AcDbEntity
  8
0
  6
HIDDEN
 62
     7
370
     0
100
AcDbPolyline
 90
       24
 70
   128
 43
0.0
 10
-6.1981945933
 20
-7.9255522101
 10
-6.1738567126
 20
-7.9446000827
 10
-6.0588650741
 20
-7.9656628816
 10
-5.8617480815
 20
-7.9871784752
 10
-5.5971250004
 20
-8.0075511504
 10
-5.2846217141
 20
-8.0252699591
 10
-4.9474151619
 20
-8.0390207784
 10
-4.610514411
 20
-8.0477837728
 10
-4.298905849
 20
-8.0509090312
 10
-4.0357000573
 20
-8.0481647673
 10
-3.8404178055
 20
-8.0397545109
 10
-3.7275422848
 20
-8.026302012
 10
-3.7054449562
 20
-8.0088049809
 10
-3.7757646775
 20
-7.9885610925
 10
-3.9332861566
 20
-7.9670717434
 10
-4.1663267461
 20
-7.9459307001
 10
-4.4576028915
 20
-7.9267058973
 10
-4.7855119736
 20
-7.9108231505
 10
-5.1257344759
 20
-7.8994604105
 10
-5.4530376518
 20
-7.8934603997
 10
-5.7431469221
 20
-7.8932681115
 10
-5.9745462093
 20
-7.8988978069
 10
-6.1300736869
 20
-7.9099319573
 10
-6.1981945933
 20
-7.9255522101
  0
LWPOLYLINE
  5
91
330
1F
100
AcDbEntity
  8
0
  6
HIDDEN
 62
     7
370
     0
100
AcDbPolyline
 90
       24
 70
   128
 43
0.0
 10
-15.1741192187
 20
-7.5927979337
 10
-15.149781338
 20
-7.6118458063
 10
-15.0347896995
 20
-7.6329086051
 10
-14.8376727069
 20
-7.6544241988
 10
-14.5730496258
 20
-7.674796874
 10
-14.2605463395
 20
-7.6925156827
 10
-13.9233397873
 20
-7.706266502
 10
-13.5864390364
 20
-7.7150294964
 10
-13.2748304744
 20
-7.7181547547
 10
-13.0116246827
 20
-7.7154104909
 10
-12.8163424309
 20
-7.7070002344
 10
-12.7034669102
 20
-7.6935477355
 10
-12.6813695816
 20
-7.6760507045
 10
-12.7516893029
 20
-7.6558068161
 10
-12.909210782
 20
-7.6343174669
 10
-13.1422513715
 20
-7.6131764237
 10
-13.4335275169
 20
-7.5939516209
 10
-13.761436599
 20
-7.5780688741
 10
-14.1016591013
 20
-7.5667061341
 10
-14.4289622772
 20
-7.5607061233
 10
-14.7190715475
 20
-7.560513835
 10
-14.9504708347
 20
-7.5661435305
 10
-15.1059983123
 20
-7.5771776808
 10
-15.1741192187
 20
-7.5927979337
  0
SPLINE
  5
93
330
1F
100
AcDbEntity
  8
0
  6
HIDDEN
 62
     7
370
     0
100
AcDbSpline
210
0.0
220
0.0
230
1.0
 70
     8
 71
     3
 72
    10
 73
     6
 74
     0
 42
0.00000001
 43
0.00000001
 12
1.0
 22
0.0
 32
0.0
 13
1.0
 23
0.0
 33
0.0
 40
0.0
 40
0.0
 40
0.0
 40
0.0
 40
0.5
 40
0.5
 40
1.0
 40
1.0
 40
1.0
 40
1.0
 10
11.61325234924588
 20
-71.98114274910264
 30
0.0
 10
11.72972561687682
 20
-71.88490535669511
 30
0.0
 10
11.78613874716921
 20
-71.80858465560192
 30
0.0
 10
11.7383942322746
 20
-71.84630268753497
 30
0.0
 10
11.63550936980568
 20
-71.9595006753657
 30
0.0
 10
11.47713550848547
 20
-72.08892231962992
 30
0.0
  0
LWPOLYLINE
  5
A1
330
1F
100
AcDbEntity
  8
0
  6
HIDDEN
 62
     7
370
     0
100
AcDbPolyline
 90
        9
 70
   128
 43
0.0
 10
11.6132523492
 20
-71.9811427491
 10
11.8368255081
 20
-72.0001832536
 10
12.0006590911
 20
-72.0198199965
 10
12.0946673993
 20
-72.0388441274
 10
12.1130632219
 20
-72.0560845088
 10
12.0547141002
 20
-72.0704798119
 10
11.9232120432
 20
-72.0811438527
 10
11.7266524006
 20
-72.0874201461
 10
11.4771355085
 20
-72.0889223196
  0
LWPOLYLINE
  5
A2
330
1F
100
AcDbEntity
  8
0
  6
HIDDEN
 62
     7
370
     0
100
AcDbPolyline
 90
       24
 70
   128
 43
0.0
 10
11.8274225515
 20
-80.5390298949
 10
11.7593016451
 20
-80.5546501478
 10
11.6037741675
 20
-80.5656842981
 10
11.3723748803
 20
-80.5713139936
 10
11.08226561
 20
-80.5711217053
 10
10.7549624341
 20
-80.5651216945
 10
10.4147399318
 20
-80.5537589545
 10
10.0868308497
 20
-80.5378762078
 10
9.7955547043
 20
-80.5186514049
 10
9.5625141148
 20
-80.4975103617
 10
9.4049926357
 20
-80.4760210125
 10
9.3346729144
 20
-80.4557771241
 10
9.356770243
 20
-80.4382800931
 10
9.4696457637
 20
-80.4248275942
 10
9.6649280155
 20
-80.4164173377
 10
9.9281338072
 20
-80.4136730739
 10
10.2397423692
 20
-80.4167983323
 10
10.5766431201
 20
-80.4255613267
 10
10.9138496723
 20
-80.4393121459
 10
11.2263529586
 20
-80.4570309546
 10
11.4909760397
 20
-80.4774036299
 10
11.6880930323
 20
-80.4989192235
 10
11.8030846708
 20
-80.5199820223
 10
11.8274225515
 20
-80.5390298949
  0
LWPOLYLINE
  5
A3
330
1F
100
AcDbEntity
  8
0
  6
HIDDEN
 62
     7
370
     0
100
AcDbPolyline
 90
       24
 70
   128
 43
0.0
 10
2.8514979261
 20
-80.2062756185
 10
2.7833770197
 20
-80.2218958713
 10
2.6278495421
 20
-80.2329300217
 10
2.3964502549
 20
-80.2385597171
 10
2.1063409846
 20
-80.2383674289
 10
1.7790378087
 20
-80.2323674181
 10
1.4388153064
 20
-80.2210046781
 10
1.1109062243
 20
-80.2051219313
 10
0.8196300789
 20
-80.1858971285
 10
0.5865894894
 20
-80.1647560853
 10
0.4290680103
 20
-80.1432667361
 10
0.358748289
 20
-80.1230228477
 10
0.3808456176
 20
-80.1055258167
 10
0.4937211383
 20
-80.0920733178
 10
0.6890033901
 20
-80.0836630613
 10
0.9522091818
 20
-80.0809187975
 10
1.2638177438
 20
-80.0840440558
 10
1.6007184947
 20
-80.0928070502
 10
1.9379250469
 20
-80.1065578695
 10
2.2504283332
 20
-80.1242766782
 10
2.5150514143
 20
-80.1446493534
 10
2.7121684069
 20
-80.166164947
 10
2.8271600454
 20
-80.1872277459
 10
2.8514979261
 20
-80.2062756185
  0
LWPOLYLINE
  5
A4
330
1F
100
AcDbEntity
  8
0
  6
HIDDEN
 62
     7
370
     0
100
AcDbPolyline
 90
       24
 70
   128
 43
0.0
 10
-6.1244266993
 20
-79.8735213421
 10
-6.1925476057
 20
-79.8891415949
 10
-6.3480750833
 20
-79.9001757453
 10
-6.5794743705
 20
-79.9058054407
 10
-6.8695836408
 20
-79.9056131525
 10
-7.1968868167
 20
-79.8996131417
 10
-7.537109319
 20
-79.8882504017
 10
-7.8650184011
 20
-79.8723676549
 10
-8.1562945465
 20
-79.8531428521
 10
-8.389335136
 20
-79.8320018088
 10
-8.5468566151
 20
-79.8105124597
 10
-8.6171763364
 20
-79.7902685713
 10
-8.5950790078
 20
-79.7727715402
 10
-8.4822034871
 20
-79.7593190413
 10
-8.2869212353
 20
-79.7509087848
 10
-8.0237154436
 20
-79.748164521
 10
-7.7121068816
 20
-79.7512897794
 10
-7.3752061307
 20
-79.7600527738
 10
-7.0379995785
 20
-79.773803593
 10
-6.7254962922
 20
-79.7915224018
 10
-6.4608732111
 20
-79.811895077
 10
-6.2637562185
 20
-79.8334106706
 10
-6.14876458
 20
-79.8544734694
 10
-6.1244266993
 20
-79.8735213421
  0
LWPOLYLINE
  5
A5
330
1F
100
AcDbEntity
  8
0
  6
HIDDEN
 62
     7
370
     0
100
AcDbPolyline
 90
       24
 70
   128
 43
0.0
 10
-15.1003513247
 20
-79.5407670656
 10
-15.1684722311
 20
-79.5563873185
 10
-15.3239997087
 20
-79.5674214688
 10
-15.5553989959
 20
-79.5730511643
 10
-15.8455082661
 20
-79.572858876
 10
-16.172811442
 20
-79.5668588652
 10
-16.5130339443
 20
-79.5554961252
 10
-16.8409430265
 20
-79.5396133785
 10
-17.1322191719
 20
-79.5203885756
 10
-17.3652597614
 20
-79.4992475324
 10
-17.5227812405
 20
-79.4777581832
 10
-17.5931009618
 20
-79.4575142948
 10
-17.5710036332
 20
-79.4400172638
 10
-17.4581281125
 20
-79.4265647649
 10
-17.2628458607
 20
-79.4181545084
 10
-16.999640069
 20
-79.4154102446
 10
-16.688031507
 20
-79.418535503
 10
-16.3511307561
 20
-79.4272984974
 10
-16.0139242039
 20
-79.4410493166
 10
-15.7014209176
 20
-79.4587681253
 10
-15.4367978365
 20
-79.4791408006
 10
-15.2396808439
 20
-79.5006563942
 10
-15.1246892053
 20
-79.521719193
 10
-15.1003513247
 20
-79.5407670656
  0
LINE
  5
C0
330
1F
100
AcDbEntity
  8
0
  6
Continuous
 62
     7
370
    15
100
AcDbLine
 10
19.3619531743
 20
-80.979764921
 30
0.0
 11
22.0503359541
 21
-1.1402789338
 31
0.0
  0
LINE
  5
C1
330
1F
100
AcDbEntity
  8
0
  6
Continuous
 62
     7
370
    15
100
AcDbLine
 10
-25.5176699527
 20
-79.3159935388
 30
0.0
 11
19.3619531743
 21
-80.979764921
 31
0.0
  0
LINE
  5
C2
330
1F
100
AcDbEntity
  8
0
  6
Continuous
 62
     7
370
    15
100
AcDbLine
 10
-22.8292871728
 20
0.5234924484
 30
0.0
 11
-25.5176699527
 21
-79.3159935388
 31
0.0
  0
LINE
  5
C3
330
1F
100
AcDbEntity
  8
0
  6
Continuous
 62
     7
370
    15
100
AcDbLine
 10
22.0503359541
 20
-1.1402789338
 30
0.0
 11
-22.8292871728
 21
0.5234924484
 31
0.0
  0
LINE
  5
C4
330
1F
100
AcDbEntity
  8
0
  6
Continuous
 62
     7
370
    15
100
AcDbLine
 10
-20.3924085463
 20
-45.7281422467
 30
0.0
 11
-21.1923222717
 21
-69.4839485799
 31
0.0
  0
LINE
  5
C5
330
1F
100
AcDbEntity
  8
0
  6
Continuous
 62
     7
370
    15
100
AcDbLine
 10
-19.2648819244
 20
-71.5538811244
 30
0.0
 11
10.0143168237
 21
-72.6393156618
 31
0.0
  0
LINE
  5
C6
330
1F
100
AcDbEntity
  8
0
  6
Continuous
 62
     7
370
    15
100
AcDbLine
 10
11.3899662366
 20
-69.1395049737
 30
0.0
 11
-17.0893187862
 21
-44.298264103
 31
0.0
  0
LINE
  5
C7
330
1F
100
AcDbEntity
  8
0
  6
Continuous
 62
     7
370
    15
100
AcDbLine
 10
12.1650230476
 20
-8.7677268721
 30
0.0
 11
-17.1141757005
 21
-7.6822923346
 31
0.0
  0
LINE
  5
C8
330
1F
100
AcDbEntity
  8
0
  6
Continuous
 62
     7
370
    15
100
AcDbLine
 10
-19.1760351868
 20
-9.6043340895
 30
0.0
 11
-19.9759489122
 21
-33.3601404228
 31
0.0
  0
LINE
  5
C9
330
1F
100
AcDbEntity
  8
0
  6
Continuous
 62
     7
370
    15
100
AcDbLine
 10
-16.777269991
 20
-35.0310512649
 30
0.0
 11
13.3018424826
 21
-12.3606794691
 31
0.0
  0
LINE
  5
CA
330
1F
100
AcDbEntity
  8
0
  6
Continuous
 62
     7
370
    15
100
AcDbLine
 10
-14.4513671103
 20
-41.308997205
 30
0.0
 11
12.6524741102
 21
-64.9504983081
 31
0.0
  0
LINE
  5
CB
330
1F
100
AcDbEntity
  8
0
  6
Continuous
 62
     7
370
    15
100
AcDbLine
 10
15.9555638704
 20
-63.5206201644
 30
0.0
 11
17.478125591
 21
-18.3036421113
 31
0.0
  0
LINE
  5
CC
330
1F
100
AcDbEntity
  8
0
  6
Continuous
 62
     7
370
    15
100
AcDbLine
 10
14.2794466698
 20
-16.6327312692
 30
0.0
 11
-14.3469562713
 21
-38.2082082193
 31
0.0
  0
LINE
  5
CD
330
1F
100
AcDbEntity
  8
0
  6
Continuous
 62
     7
370
    15
100
AcDbLine
 10
19.3619531743
 20
-80.979764921
 30
0.0
 11
19.7514287836
 21
-80.6713716783
 31
0.0
  0
LINE
  5
CE
330
1F
100
AcDbEntity
  8
0
  6
Continuous
 62
     7
370
    15
100
AcDbLine
 10
22.0503359541
 20
-1.1402789338
 30
0.0
 11
22.4398115635
 21
-0.8318856911
 31
0.0
  0
LINE
  5
CF
330
1F
100
AcDbEntity
  8
0
  6
Continuous
 62
     7
370
    15
100
AcDbLine
 10
19.7514287836
 20
-80.6713716783
 30
0.0
 11
22.4398115635
 21
-0.8318856911
 31
0.0
  0
LINE
  5
D0
330
1F
100
AcDbEntity
  8
0
  6
Continuous
 62
     7
370
    15
100
AcDbLine
 10
-22.8292871728
 20
0.5234924484
 30
0.0
 11
-22.4398115635
 21
0.8318856911
 31
0.0
  0
LINE
  5
D1
330
1F
100
AcDbEntity
  8
0
  6
Continuous
 62
     7
370
    15
100
AcDbLine
 10
22.4398115635
 20
-0.8318856911
 30
0.0
 11
-22.4398115635
 21
0.8318856911
 31
0.0
  0
LINE
  5
D2
330
1F
100
AcDbEntity
  8
0
  6
Continuous
 62
     7
370
    15
100
AcDbLine
 10
-16.3877943816
 20
-34.7226580222
 30
0.0
 11
-16.777269991
 21
-35.0310512649
 31
0.0
  0
LINE
  5
D3
330
1F
100
AcDbEntity
  8
0
  6
Continuous
 62
     7
370
    15
100
AcDbLine
 10
-16.3877943816
 20
-34.7226580222
 30
0.0
 11
13.6913180919
 21
-12.0522862264
 31
0.0
  0
LINE
  5
D4
330
1F
100
AcDbEntity
  8
0
  6
Continuous
 62
     7
370
    15
100
AcDbLine
 10
12.6524741102
 20
-64.9504983081
 30
0.0
 11
13.0419497196
 21
-64.6421050654
 31
0.0
  0
LINE
  5
D5
330
1F
100
AcDbEntity
  8
0
  6
Continuous
 62
     7
370
    15
100
AcDbLine
 10
-14.0618915009
 20
-41.0006039624
 30
0.0
 11
-14.4513671103
 21
-41.308997205
 31
0.0
  0
LINE
  5
D6
330
1F
100
AcDbEntity
  8
0
  6
Continuous
 62
     7
370
    15
100
AcDbLine
 10
-14.0618915009
 20
-41.0006039624
 30
0.0
 11
13.0419497196
 21
-64.6421050654
 31
0.0
  0
LINE
  5
D7
330
1F
100
AcDbEntity
  8
0
  6
Continuous
 62
     7
370
    15
100
AcDbLine
 10
-18.7865595775
 20
-9.2959408468
 30
0.0
 11
-19.1760351868
 21
-9.6043340895
 31
0.0
  0
LINE
  5
D8
330
1F
100
AcDbEntity
  8
0
  6
Continuous
 62
     7
370
    15
100
AcDbLine
 10
-19.9759489122
 20
-33.3601404228
 30
0.0
 11
-19.5864733028
 21
-33.0517471801
 31
0.0
  0
LINE
  5
D9
330
1F
100
AcDbEntity
  8
0
  6
Continuous
 62
     7
370
    15
100
AcDbLine
 10
-18.7865595775
 20
-9.2959408468
 30
0.0
 11
-19.5864733028
 21
-33.0517471801
 31
0.0
  0
LINE
  5
DA
330
1F
100
AcDbEntity
  8
0
  6
Continuous
 62
     7
370
    15
100
AcDbLine
 10
10.0143168237
 20
-72.6393156618
 30
0.0
 11
10.1394438698
 21
-72.5402379929
 31
0.0
  0
LINE
  5
DB
330
1F
100
AcDbEntity
  8
0
  6
Continuous
 62
     7
370
    15
100
AcDbLine
 10
10.278665387
 20
-72.4300000881
 30
0.0
 11
10.4037924331
 21
-72.3309224192
 31
0.0
  0
LINE
  5
DC
330
1F
100
AcDbEntity
  8
0
  6
Continuous
 62
     7
370
    15
100
AcDbLine
 10
-18.8754063151
 20
-71.2454878817
 30
0.0
 11
-19.2648819244
 21
-71.5538811244
 31
0.0
  0
LINE
  5
DD
330
1F
100
AcDbEntity
  8
0
  6
Continuous
 62
     7
370
    15
100
AcDbLine
 10
-18.8754063151
 20
-71.2454878817
 30
0.0
 11
10.4037924331
 21
-72.3309224192
 31
0.0
  0
LINE
  5
DE
330
1F
100
AcDbEntity
  8
0
  6
Continuous
 62
     7
370
    15
100
AcDbLine
 10
-20.002932937
 20
-45.419749004
 30
0.0
 11
-20.3924085463
 21
-45.7281422467
 31
0.0
  0
LINE
  5
DF
330
1F
100
AcDbEntity
  8
0
  6
Continuous
 62
     7
370
    15
100
AcDbLine
 10
-20.002932937
 20
-45.419749004
 30
0.0
 11
-20.8028466624
 21
-69.1755553373
 31
0.0
  0
LINE
  5
E0
330
1F
100
AcDbEntity
  8
0
  6
Continuous
 62
     7
370
    15
100
AcDbLine
 10
-21.1923222717
 20
-69.4839485799
 30
0.0
 11
-20.8028466624
 21
-69.1755553373
 31
0.0
  0
LINE
  5
E1
330
1F
100
AcDbEntity
  8
0
  6
Continuous
 62
     8
370
    15
100
AcDbLine
 10
13.3018424826
 20
-12.3606794691
 30
0.0
 11
13.6913180919
 21
-12.0522862264
 31
0.0
  0
LINE
  5
E2
330
1F
100
AcDbEntity
  8
0
  6
HIDDEN
 62
     7
370
     0
100
AcDbLine
 10
12.554498657
 20
-8.4593336294
 30
0.0
 11
12.4293716109
 21
-8.5584112984
 31
0.0
  0
LINE
  5
E3
330
1F
100
AcDbEntity
  8
0
  6
HIDDEN
 62
     7
370
     0
100
AcDbLine
 10
12.2901500937
 20
-8.6686492031
 30
0.0
 11
12.1650230476
 21
-8.7677268721
 31
0.0
  0
LINE
  5
E4
330
1F
100
AcDbEntity
  8
0
  6
HIDDEN
 62
     7
370
     0
100
AcDbLine
 10
17.478125591
 20
-18.3036421113
 30
0.0
 11
17.8676012003
 21
-17.9952488686
 31
0.0
  0
LINE
  5
E5
330
1F
100
AcDbEntity
  8
0
  6
HIDDEN
 62
     7
370
     0
100
AcDbLine
 10
14.6689222791
 20
-16.3243380265
 30
0.0
 11
14.2794466698
 21
-16.6327312692
 31
0.0
  0
LINE
  5
E6
330
1F
100
AcDbEntity
  8
0
  6
HIDDEN
 62
     7
370
     0
100
AcDbLine
 10
-17.1141757005
 20
-7.6822923346
 30
0.0
 11
-16.7247000912
 21
-7.3738990919
 31
0.0
  0
LINE
  5
E7
330
1F
100
AcDbEntity
  8
0
  6
HIDDEN
 62
     7
370
     0
100
AcDbLine
 10
16.3450394797
 20
-63.2122269218
 30
0.0
 11
15.9555638704
 21
-63.5206201644
 31
0.0
  0
LINE
  5
E8
330
1F
100
AcDbEntity
  8
0
  6
HIDDEN
 62
     7
370
     0
100
AcDbLine
 10
11.779441846
 20
-68.831111731
 30
0.0
 11
11.3899662366
 21
-69.1395049737
 31
0.0
  0
LINE
  5
E9
330
1F
100
AcDbEntity
  8
0
  6
HIDDEN
 62
     7
370
     0
100
AcDbLine
 10
-13.957480662
 20
-37.8998149766
 30
0.0
 11
-14.1234104963
 21
-38.0397236658
 31
0.0
  0
LINE
  5
EA
330
1F
100
AcDbEntity
  8
0
  6
HIDDEN
 62
     7
370
     0
100
AcDbLine
 10
-14.3469562713
 20
-38.2082082193
 30
0.0
 11
-13.957480662
 21
-37.8998149766
 31
0.0
  0
LINE
  5
EB
330
1F
100
AcDbEntity
  8
0
  6
HIDDEN
 62
     7
370
     0
100
AcDbLine
 10
-25.5176699527
 20
-79.3159935388
 30
0.0
 11
-25.1281943434
 21
-79.0076002961
 31
0.0
  0
LINE
  5
EC
330
1F
100
AcDbEntity
  8
0
  6
HIDDEN
 62
     7
370
     0
100
AcDbLine
 10
-17.0893187862
 20
-44.298264103
 30
0.0
 11
-16.6998431768
 21
-43.9898708603
 31
0.0
  0
LINE
  5
ED
330
1F
100
AcDbEntity
  8
0
  6
HIDDEN
 62
     7
370
     0
100
AcDbLine
 10
-25.1281943434
 20
-79.0076002961
 30
0.0
 11
19.7514287836
 21
-80.6713716783
 31
0.0
  0
LINE
  5
EE
330
1F
100
AcDbEntity
  8
0
  6
HIDDEN
 62
     7
370
     0
100
AcDbLine
 10
11.779441846
 20
-68.831111731
 30
0.0
 11
-16.6998431768
 21
-43.9898708603
 31
0.0
  0
LINE
  5
EF
330
1F
100
AcDbEntity
  8
0
  6
HIDDEN
 62
     7
370
     0
100
AcDbLine
 10
-22.4398115635
 20
0.8318856911
 30
0.0
 11
-25.1281943434
 21
-79.0076002961
 31
0.0
  0
LINE
  5
F0
330
1F
100
AcDbEntity
  8
0
  6
HIDDEN
 62
     7
370
     0
100
AcDbLine
 10
14.6689222791
 20
-16.3243380265
 30
0.0
 11
-13.957480662
 21
-37.8998149766
 31
0.0
  0
LINE
  5
F1
330
1F
100
AcDbEntity
  8
0
  6
HIDDEN
 62
     7
370
     0
100
AcDbLine
 10
16.3450394797
 20
-63.2122269218
 30
0.0
 11
17.8676012003
 21
-17.9952488686
 31
0.0
  0
LINE
  5
F2
330
1F
100
AcDbEntity
  8
0
  6
HIDDEN
 62
     7
370
     0
100
AcDbLine
 10
12.554498657
 20
-8.4593336294
 30
0.0
 11
-16.7247000912
 21
-7.3738990919
 31
0.0
  0
LINE
  5
F3
330
1F
100
AcDbEntity
  8
0
  6
HIDDEN
 62
     7
370
     0
100
AcDbLine
 10
13.3393638543
 20
-12.331691274
 30
0.0
 11
13.7288394636
 21
-12.0232980313
 31
0.0
  0
LINE
  5
F4
330
1F
100
AcDbEntity
  8
0
  6
HIDDEN
 62
     7
370
     0
100
AcDbLine
 10
12.0198571732
 20
-0.6112614451
 30
0.0
 11
11.7510188952
 21
-8.5952100438
 31
0.0
  0
LINE
  5
F5
330
1F
100
AcDbEntity
  8
0
  6
HIDDEN
 62
     7
370
     0
100
AcDbLine
 10
14.2328004233
 20
-9.178340013
 30
0.0
 11
14.5184410937
 21
-0.6953946269
 31
0.0
  0
LINE
  5
F6
330
1F
100
AcDbEntity
  8
0
  6
HIDDEN
 62
     7
370
     0
100
AcDbLine
 10
3.0439325478
 20
-0.2785071687
 30
0.0
 11
2.7750942698
 21
-8.2624557674
 31
0.0
  0
LINE
  5
F7
330
1F
100
AcDbEntity
  8
0
  6
HIDDEN
 62
     7
370
     0
100
AcDbLine
 10
5.2736781903
 20
-8.3465889492
 30
0.0
 11
5.5425164683
 21
-0.3626403504
 31
0.0
  0
LINE
  5
F8
330
1F
100
AcDbEntity
  8
0
  6
HIDDEN
 62
     7
370
     0
100
AcDbLine
 10
13.8616166601
 20
-9.3864763511
 30
0.0
 11
14.2275920423
 21
-9.1841671336
 31
0.0
  0
LINE
  5
F9
330
1F
100
AcDbEntity
  8
0
  6
HIDDEN
 62
     7
370
     0
100
AcDbLine
 10
-18.0334600368
 20
-7.8019089894
 30
0.0
 11
-18.4229356462
 21
-8.110302232
 31
0.0
  0
LINE
  5
FA
330
1F
100
AcDbEntity
  8
0
  6
HIDDEN
 62
     7
370
     0
100
AcDbLine
 10
-5.9319920776
 20
0.0542471078
 30
0.0
 11
-6.2008303556
 21
-7.929701491
 31
0.0
  0
LINE
  5
FB
330
1F
100
AcDbEntity
  8
0
  6
HIDDEN
 62
     7
370
     0
100
AcDbLine
 10
-3.7022464351
 20
-8.0138346727
 30
0.0
 11
-3.4334081571
 21
-0.029886074
 31
0.0
  0
LINE
  5
FC
330
1F
100
AcDbEntity
  8
0
  6
HIDDEN
 62
     7
370
     0
100
AcDbLine
 10
15.2024643298
 20
-65.0146520219
 30
0.0
 11
15.5919399391
 21
-64.7062587792
 31
0.0
  0
LINE
  5
FD
330
1F
100
AcDbEntity
  8
0
  6
HIDDEN
 62
     7
370
     0
100
AcDbLine
 10
-14.907916703
 20
0.3870013842
 30
0.0
 11
-15.176754981
 21
-7.5969472145
 31
0.0
  0
LINE
  5
FE
330
1F
100
AcDbEntity
  8
0
  6
HIDDEN
 62
     7
370
     0
100
AcDbLine
 10
-12.6781710605
 20
-7.6810803963
 30
0.0
 11
-12.4093327825
 21
0.3028682024
 31
0.0
  0
LINE
  5
FF
330
1F
100
AcDbEntity
  8
0
  6
HIDDEN
 62
     7
370
     0
100
AcDbLine
 10
11.5867493667
 20
-72.0025254317
 30
0.0
 11
11.7125523787
 21
-71.9029125217
 31
0.0
  0
LINE
  5
100
330
1F
100
AcDbEntity
  8
0
  6
HIDDEN
 62
     7
370
     0
100
AcDbLine
 10
11.3230767694
 20
-72.2113057644
 30
0.0
 11
11.44972376
 21
-72.1110245782
 31
0.0
  0
LINE
  5
101
330
1F
100
AcDbEntity
  8
0
  6
HIDDEN
 62
     7
370
     0
100
AcDbLine
 10
-13.9950020337
 20
-37.9288031717
 30
0.0
 11
-14.384477643
 21
-38.2371964144
 31
0.0
  0
LINE
  5
102
330
1F
100
AcDbEntity
  8
0
  6
HIDDEN
 62
     7
370
     0
100
AcDbLine
 10
-19.2498333964
 20
-43.9257171465
 30
0.0
 11
-19.6393090057
 21
-44.2341103892
 31
0.0
  0
LINE
  5
103
330
1F
100
AcDbEntity
  8
0
  6
HIDDEN
 62
     7
370
     0
100
AcDbLine
 10
11.8300583138
 20
-80.5348806141
 30
0.0
 11
12.1156989841
 21
-72.0519352279
 31
0.0
  0
LINE
  5
104
330
1F
100
AcDbEntity
  8
0
  6
HIDDEN
 62
     7
370
     0
100
AcDbLine
 10
9.6003126713
 20
-72.4667988336
 30
0.0
 11
9.3314743933
 21
-80.4507474323
 31
0.0
  0
LINE
  5
105
330
1F
100
AcDbEntity
  8
0
  6
HIDDEN
 62
     7
370
     0
100
AcDbLine
 10
12.1108943818
 20
-72.0457709467
 30
0.0
 11
11.7638817946
 21
-71.8222163901
 31
0.0
  0
LINE
  5
106
330
1F
100
AcDbEntity
  8
0
  6
HIDDEN
 62
     7
370
     0
100
AcDbLine
 10
2.8541336884
 20
-80.2021263377
 30
0.0
 11
3.1229719664
 21
-72.2181777389
 31
0.0
  0
LINE
  5
107
330
1F
100
AcDbEntity
  8
0
  6
HIDDEN
 62
     7
370
     0
100
AcDbLine
 10
0.6243880459
 20
-72.1340445572
 30
0.0
 11
0.3555497679
 21
-80.1179931559
 31
0.0
  0
LINE
  5
108
330
1F
100
AcDbEntity
  8
0
  6
HIDDEN
 62
     7
370
     0
100
AcDbLine
 10
-6.121790937
 20
-79.8693720612
 30
0.0
 11
-5.852952659
 21
-71.8854234625
 31
0.0
  0
LINE
  5
109
330
1F
100
AcDbEntity
  8
0
  6
HIDDEN
 62
     7
370
     0
100
AcDbLine
 10
-8.3515365795
 20
-71.8012902807
 30
0.0
 11
-8.6203748575
 21
-79.7852388795
 31
0.0
  0
LINE
  5
10A
330
1F
100
AcDbEntity
  8
0
  6
HIDDEN
 62
     7
370
     0
100
AcDbLine
 10
-15.0977155624
 20
-79.5366177848
 30
0.0
 11
-14.8288772844
 21
-71.5526691861
 31
0.0
  0
LINE
  5
10B
330
1F
100
AcDbEntity
  8
0
  6
HIDDEN
 62
     7
370
     0
100
AcDbLine
 10
-17.3274612049
 20
-71.4685360043
 30
0.0
 11
-17.5962994829
 21
-79.452484603
 31
0.0
  0
ARC
  5
10C
330
1F
100
AcDbEntity
  8
0
  6
Continuous
 62
     7
370
    15
100
AcDbCircle
 10
-18.4021421338
 20
-45.7956667926
 30
0.0
 40
1.991411548872276
100
AcDbArc
 50
48.7578644986
 51
178.0568490483
  0
ARC
  5
10D
330
1F
100
AcDbEntity
  8
0
  6
Continuous
 62
     7
370
    15
100
AcDbCircle
 10
-19.1889123435
 20
-69.5507963563
 30
0.0
 40
2.004524872752812
100
AcDbArc
 50
178.0889208306
 51
267.8280244407
  0
ARC
  5
10E
330
1F
100
AcDbEntity
  8
0
  6
Continuous
 62
     7
370
    15
100
AcDbCircle
 10
10.0850830013
 20
-70.6468668551
 30
0.0
 40
1.99370511843906
100
AcDbArc
 50
267.9658701072
 51
49.1181288516
  0
ARC
  5
10F
330
1F
100
AcDbEntity
  8
0
  6
Continuous
 62
     7
370
    15
100
AcDbCircle
 10
12.0928963866
 20
-10.7668705268
 30
0.0
 40
2.000444352512031
100
AcDbArc
 50
307.1812758593
 51
87.9337344906
  0
ARC
  5
110
330
1F
100
AcDbEntity
  8
0
  6
Continuous
 62
     7
370
    15
100
AcDbCircle
 10
-17.1884591998
 20
-9.6695500916
 30
0.0
 40
1.988645627308825
100
AcDbArc
 50
87.8592860755
 51
178.120694955
  0
ARC
  5
111
330
1F
100
AcDbEntity
  8
0
  6
Continuous
 62
     7
370
    15
100
AcDbCircle
 10
-17.9766234264
 20
-33.4298895983
 30
0.0
 40
2.000541763022881
100
AcDbArc
 50
178.0019694961
 51
306.8351213178
  0
ARC
  5
112
330
1F
100
AcDbEntity
  8
0
  6
Continuous
 62
     7
370
    15
100
AcDbCircle
 10
-13.1410508731
 20
-39.8009662547
 30
0.0
 40
1.997770254262798
100
AcDbArc
 50
127.1300104921
 51
229.012880232
  0
ARC
  5
113
330
1F
100
AcDbEntity
  8
0
  6
Continuous
 62
     7
370
    15
100
AcDbCircle
 10
13.9652974579
 20
-63.4530956185
 30
0.0
 40
1.991411548872275
100
AcDbArc
 50
228.7578644987
 51
358.0568490483
  0
ARC
  5
114
330
1F
100
AcDbEntity
  8
0
  6
Continuous
 62
     7
370
    15
100
AcDbCircle
 10
15.4788001052
 20
-18.2338929358
 30
0.0
 40
2.000541763022877
100
AcDbArc
 50
358.0019694961
 51
126.8351213178
  0
ARC
  5
115
330
1F
100
AcDbEntity
  8
0
  6
Continuous
 62
     7
370
    15
100
AcDbCircle
 10
-16.7965389498
 20
-9.3620762969
 30
0.0
 40
1.991119282243041
100
AcDbArc
 50
135.574480616
 51
178.0965584034
  0
ARC
  5
116
330
1F
100
AcDbEntity
  8
0
  6
Continuous
 62
     7
370
    15
100
AcDbCircle
 10
14.3558194612
 20
-63.139740812
 30
0.0
 40
1.99583367246367
100
AcDbArc
 50
228.8291761182
 51
301.1264517835
  0
ARC
  5
117
330
1F
100
AcDbEntity
  8
0
  6
Continuous
 62
     7
370
    15
100
AcDbCircle
 10
10.4780269632
 20
-70.34266793
 30
0.0
 40
1.989639836546054
100
AcDbArc
 50
267.8617674235
 51
301.1805173598
  0
ARC
  5
118
330
1F
100
AcDbEntity
  8
0
  6
Continuous
 62
     7
370
    15
100
AcDbCircle
 10
-17.587147817
 20
-33.1214963556
 30
0.0
 40
2.000541763022873
100
AcDbArc
 50
178.0019694961
 51
306.8351213178
  0
ARC
  5
119
330
1F
100
AcDbEntity
  8
0
  6
Continuous
 62
     7
370
    15
100
AcDbCircle
 10
-12.7509303877
 20
-39.492286529
 30
0.0
 40
1.99840949761586
100
AcDbArc
 50
133.3762457965
 51
229.0043109029
  0
ARC
  5
11A
330
1F
100
AcDbEntity
  8
0
  6
Continuous
 62
     7
370
    15
100
AcDbCircle
 10
-18.0131868371
 20
-45.4857669927
 30
0.0
 40
1.990841007450081
100
AcDbArc
 50
135.5713644086
 51
178.0996746108
  0
ARC
  5
11B
330
1F
100
AcDbEntity
  8
0
  6
Continuous
 62
     7
370
    15
100
AcDbCircle
 10
-18.7994367342
 20
-69.2424031136
 30
0.0
 40
2.004524872752827
100
AcDbArc
 50
178.0889208306
 51
267.8280244407
  0
ARC
  5
11C
330
1F
100
AcDbEntity
  8
0
  6
HIDDEN
 62
     7
370
     0
100
AcDbCircle
 10
12.4815382865
 20
-10.4587410719
 30
0.0
 40
2.00073819801415
100
AcDbArc
 50
307.2048631725
 51
87.9101471774
  0
ARC
  5
11D
330
1F
100
AcDbEntity
  8
0
  6
HIDDEN
 62
     7
370
     0
100
AcDbCircle
 10
-16.7992455325
 20
-9.3607811829
 30
0.0
 40
1.9882800271571
100
AcDbArc
 50
87.851338652
 51
135.5465387968
  0
ARC
  5
11E
330
1F
100
AcDbEntity
  8
0
  6
HIDDEN
 62
     7
370
     0
100
AcDbCircle
 10
14.3564683803
 20
-63.146569715
 30
0.0
 40
1.989654715388676
100
AcDbArc
 50
301.212109818
 51
358.1089362396
  0
ARC
  5
11F
330
1F
100
AcDbEntity
  8
0
  6
HIDDEN
 62
     7
370
     0
100
AcDbCircle
 10
10.4701963346
 20
-70.3389238637
 30
0.0
 40
1.996902911143385
100
AcDbArc
 50
301.3171210681
 51
49.0319527288
  0
ARC
  5
120
330
1F
100
AcDbEntity
  8
0
  6
HIDDEN
 62
     7
370
     0
100
AcDbCircle
 10
-18.0132043712
 20
-45.4895570465
 30
0.0
 40
1.993483454684122
100
AcDbArc
 50
48.7895076398
 51
135.4932207855
  0
ARC
  5
121
330
1F
100
AcDbEntity
  8
0
  6
HIDDEN
 62
     7
370
     0
100
AcDbCircle
 10
15.8682757145
 20
-17.9254996931
 30
0.0
 40
2.000541763022882
100
AcDbArc
 50
358.0019694961
 51
126.8351213178
  0
ENDSEC
  0
SECTION
  2
OBJECTS
  0
DICTIONARY
  5
C
330
0
100
AcDbDictionary
281
     1
  3
ACAD_GROUP
350
D
  3
ACAD_LAYOUT
350
1A
  3
ACAD_MLINESTYLE
350
17
  3
ACAD_PLOTSETTINGS
350
19
  3
ACAD_PLOTSTYLENAME
350
E
  3
ACAD_SCALELIST
350
122
  3
AcDbVariableDictionary
350
144
  0
DICTIONARY
  5
D
102
{ACAD_REACTORS
330
C
102
}
330
C
100
AcDbDictionary
281
     1
  0
DICTIONARY
  5
1A
102
{ACAD_REACTORS
330
C
102
}
330
C
100
AcDbDictionary
281
     1
  3
Layout1
350
1E
  3
Layout2
350
26
  3
Model
350
22
  0
DICTIONARY
  5
17
102
{ACAD_REACTORS
330
C
102
}
330
C
100
AcDbDictionary
281
     1
  3
Standard
350
18
  0
DICTIONARY
  5
19
102
{ACAD_REACTORS
330
C
102
}
330
C
100
AcDbDictionary
281
     1
  0
ACDBDICTIONARYWDFLT
  5
E
102
{ACAD_REACTORS
330
C
102
}
330
C
100
AcDbDictionary
281
     1
  3
Normal
350
F
100
AcDbDictionaryWithDefault
340
F
  0
DICTIONARY
  5
122
102
{ACAD_REACTORS
330
C
102
}
330
C
100
AcDbDictionary
281
     1
  3
A0
350
123
  3
A1
350
124
  3
A2
350
125
  3
A3
350
126
  3
A4
350
127
  3
A5
350
128
  3
A6
350
129
  3
A7
350
12A
  3
A8
350
12B
  3
A9
350
12C
  3
B0
350
12D
  3
B1
350
12E
  3
B2
350
12F
  3
B3
350
130
  3
B4
350
131
  3
B5
350
132
  3
B6
350
133
  3
B7
350
134
  3
B8
350
135
  3
B9
350
136
  3
C0
350
137
  3
C1
350
138
  3
C2
350
139
  3
C3
350
13A
  3
C4
350
13B
  3
C5
350
13C
  3
C6
350
13D
  3
C7
350
13E
  3
C8
350
13F
  3
C9
350
140
  3
D0
350
141
  3
D1
350
142
  3
D2
350
143
  0
DICTIONARY
  5
144
102
{ACAD_REACTORS
330
C
102
}
330
C
100
AcDbDictionary
281
     1
  3
CANNOSCALE
350
145
  0
LAYOUT
  5
1E
102
{ACAD_REACTORS
330
1A
102
}
330
1A
100
AcDbPlotSettings
  1

  2
none_device
  4

  6

 40
0.0
 41
0.0
 42
0.0
 43
0.0
 44
0.0
 45
0.0
 46
0.0
 47
0.0
 48
0.0
 49
0.0
140
0.0
141
0.0
142
1.0
143
1.0
 70
   688
 72
     0
 73
     0
 74
     5
  7

 75
    16
147
1.0
148
0.0
149
0.0
100
AcDbLayout
  1
Layout1
 70
     1
 71
     1
 10
0.0
 20
0.0
 11
420.0
 21
297.0
 12
0.0
 22
0.0
 32
0.0
 14
1.0000000000E+20
 24
1.0000000000E+20
 34
1.0000000000E+20
 15
-1.0000000000E+20
 25
-1.0000000000E+20
 35
-1.0000000000E+20
146
0.0
 13
0.0
 23
0.0
 33
0.0
 16
1.0
 26
0.0
 36
0.0
 17
0.0
 27
1.0
 37
0.0
 76
     0
330
1B
  0
LAYOUT
  5
26
102
{ACAD_REACTORS
330
1A
102
}
330
1A
100
AcDbPlotSettings
  1

  2
none_device
  4

  6

 40
0.0
 41
0.0
 42
0.0
 43
0.0
 44
0.0
 45
0.0
 46
0.0
 47
0.0
 48
0.0
 49
0.0
140
0.0
141
0.0
142
1.0
143
1.0
 70
   688
 72
     0
 73
     0
 74
     5
  7

 75
    16
147
1.0
148
0.0
149
0.0
100
AcDbLayout
  1
Layout2
 70
     1
 71
     2
 10
0.0
 20
0.0
 11
0.0
 21
0.0
 12
0.0
 22
0.0
 32
0.0
 14
0.0
 24
0.0
 34
0.0
 15
0.0
 25
0.0
 35
0.0
146
0.0
 13
0.0
 23
0.0
 33
0.0
 16
1.0
 26
0.0
 36
0.0
 17
0.0
 27
1.0
 37
0.0
 76
     0
330
23
  0
LAYOUT
  5
22
102
{ACAD_REACTORS
330
1A
102
}
330
1A
100
AcDbPlotSettings
  1

  2
none_device
  4
ANSI_A_(11.00_x_8.50_Inches)
  6

 40
6.35
 41
19.05
 42
6.35000508
 43
19.05000254
 44
279.4
 45
215.9
 46
137.3706016469
 47
193.5971153773
 48
0.0
 49
0.0
140
0.0
141
0.0
142
0.1028582107
143
1.0
 70
  1696
 72
     0
 73
     0
 74
     0
  7

 75
     0
147
0.0179189148
148
0.0
149
0.0
100
AcDbLayout
  1
Model
 70
     1
 71
     0
 10
0.0
 20
0.0
 11
420.0
 21
297.0
 12
0.0
 22
0.0
 32
0.0
 14
-25.5176699527
 24
-80.979764921
 34
0.0
 15
22.4398115635
 25
0.8318856911
 35
0.0
146
0.0
 13
0.0
 23
0.0
 33
0.0
 16
1.0
 26
0.0
 36
0.0
 17
0.0
 27
1.0
 37
0.0
 76
     0
330
1F
331
29
  0
MLINESTYLE
  5
18
102
{ACAD_REACTORS
330
17
102
}
330
17
100
AcDbMlineStyle
  2
Standard
 70
     0
  3

 62
   256
 51
90.0
 52
90.0
 71
     2
 49
0.5
 62
   256
  6
BYLAYER
 49
-0.5
 62
   256
  6
BYLAYER
  0
ACDBPLACEHOLDER
  5
F
102
{ACAD_REACTORS
330
E
102
}
330
E
  0
SCALE
  5
123
102
{ACAD_REACTORS
330
122
102
}
330
122
100
AcDbScale
 70
     0
300
1:1
140
1.0
141
1.0
290
     1
  0
SCALE
  5
124
102
{ACAD_REACTORS
330
122
102
}
330
122
100
AcDbScale
 70
     0
300
1:2
140
1.0
141
2.0
290
     0
  0
SCALE
  5
125
102
{ACAD_REACTORS
330
122
102
}
330
122
100
AcDbScale
 70
     0
300
1:4
140
1.0
141
4.0
290
     0
  0
SCALE
  5
126
102
{ACAD_REACTORS
330
122
102
}
330
122
100
AcDbScale
 70
     0
300
1:5
140
1.0
141
5.0
290
     0
  0
SCALE
  5
127
102
{ACAD_REACTORS
330
122
102
}
330
122
100
AcDbScale
 70
     0
300
1:8
140
1.0
141
8.0
290
     0
  0
SCALE
  5
128
102
{ACAD_REACTORS
330
122
102
}
330
122
100
AcDbScale
 70
     0
300
1:10
140
1.0
141
10.0
290
     0
  0
SCALE
  5
129
102
{ACAD_REACTORS
330
122
102
}
330
122
100
AcDbScale
 70
     0
300
1:16
140
1.0
141
16.0
290
     0
  0
SCALE
  5
12A
102
{ACAD_REACTORS
330
122
102
}
330
122
100
AcDbScale
 70
     0
300
1:20
140
1.0
141
20.0
290
     0
  0
SCALE
  5
12B
102
{ACAD_REACTORS
330
122
102
}
330
122
100
AcDbScale
 70
     0
300
1:30
140
1.0
141
30.0
290
     0
  0
SCALE
  5
12C
102
{ACAD_REACTORS
330
122
102
}
330
122
100
AcDbScale
 70
     0
300
1:40
140
1.0
141
40.0
290
     0
  0
SCALE
  5
12D
102
{ACAD_REACTORS
330
122
102
}
330
122
100
AcDbScale
 70
     0
300
1:50
140
1.0
141
50.0
290
     0
  0
SCALE
  5
12E
102
{ACAD_REACTORS
330
122
102
}
330
122
100
AcDbScale
 70
     0
300
1:100
140
1.0
141
100.0
290
     0
  0
SCALE
  5
12F
102
{ACAD_REACTORS
330
122
102
}
330
122
100
AcDbScale
 70
     0
300
2:1
140
2.0
141
1.0
290
     0
  0
SCALE
  5
130
102
{ACAD_REACTORS
330
122
102
}
330
122
100
AcDbScale
 70
     0
300
4:1
140
4.0
141
1.0
290
     0
  0
SCALE
  5
131
102
{ACAD_REACTORS
330
122
102
}
330
122
100
AcDbScale
 70
     0
300
8:1
140
8.0
141
1.0
290
     0
  0
SCALE
  5
132
102
{ACAD_REACTORS
330
122
102
}
330
122
100
AcDbScale
 70
     0
300
10:1
140
10.0
141
1.0
290
     0
  0
SCALE
  5
133
102
{ACAD_REACTORS
330
122
102
}
330
122
100
AcDbScale
 70
     0
300
100:1
140
100.0
141
1.0
290
     0
  0
SCALE
  5
134
102
{ACAD_REACTORS
330
122
102
}
330
122
100
AcDbScale
 70
     0
300
1/128" = 1'-0"
140
0.0078125
141
12.0
290
     0
  0
SCALE
  5
135
102
{ACAD_REACTORS
330
122
102
}
330
122
100
AcDbScale
 70
     0
300
1/64" = 1'-0"
140
0.015625
141
12.0
290
     0
  0
SCALE
  5
136
102
{ACAD_REACTORS
330
122
102
}
330
122
100
AcDbScale
 70
     0
300
1/32" = 1'-0"
140
0.03125
141
12.0
290
     0
  0
SCALE
  5
137
102
{ACAD_REACTORS
330
122
102
}
330
122
100
AcDbScale
 70
     0
300
1/16" = 1'-0"
140
0.0625
141
12.0
290
     0
  0
SCALE
  5
138
102
{ACAD_REACTORS
330
122
102
}
330
122
100
AcDbScale
 70
     0
300
3/32" = 1'-0"
140
0.09375
141
12.0
290
     0
  0
SCALE
  5
139
102
{ACAD_REACTORS
330
122
102
}
330
122
100
AcDbScale
 70
     0
300
1/8" = 1'-0"
140
0.125
141
12.0
290
     0
  0
SCALE
  5
13A
102
{ACAD_REACTORS
330
122
102
}
330
122
100
AcDbScale
 70
     0
300
3/16" = 1'-0"
140
0.1875
141
12.0
290
     0
  0
SCALE
  5
13B
102
{ACAD_REACTORS
330
122
102
}
330
122
100
AcDbScale
 70
     0
300
1/4" = 1'-0"
140
0.25
141
12.0
290
     0
  0
SCALE
  5
13C
102
{ACAD_REACTORS
330
122
102
}
330
122
100
AcDbScale
 70
     0
300
3/8" = 1'-0"
140
0.375
141
12.0
290
     0
  0
SCALE
  5
13D
102
{ACAD_REACTORS
330
122
102
}
330
122
100
AcDbScale
 70
     0
300
1/2" = 1'-0"
140
0.5
141
12.0
290
     0
  0
SCALE
  5
13E
102
{ACAD_REACTORS
330
122
102
}
330
122
100
AcDbScale
 70
     0
300
3/4" = 1'-0"
140
0.75
141
12.0
290
     0
  0
SCALE
  5
13F
102
{ACAD_REACTORS
330
122
102
}
330
122
100
AcDbScale
 70
     0
300
1" = 1'-0"
140
1.0
141
12.0
290
     0
  0
SCALE
  5
140
102
{ACAD_REACTORS
330
122
102
}
330
122
100
AcDbScale
 70
     0
300
1-1/2" = 1'-0"
140
1.5
141
12.0
290
     0
  0
SCALE
  5
141
102
{ACAD_REACTORS
330
122
102
}
330
122
100
AcDbScale
 70
     0
300
3" = 1'-0"
140
3.0
141
12.0
290
     0
  0
SCALE
  5
142
102
{ACAD_REACTORS
330
122
102
}
330
122
100
AcDbScale
 70
     0
300
6" = 1'-0"
140
6.0
141
12.0
290
     0
  0
SCALE
  5
143
102
{ACAD_REACTORS
330
122
102
}
330
122
100
AcDbScale
 70
     0
300
1'-0" = 1'-0"
140
12.0
141
12.0
290
     0
  0
DICTIONARYVAR
  5
145
102
{ACAD_REACTORS
330
144
102
}
330
144
100
DictionaryVariables
280
     0
  1
1:1
  0
ENDSEC
  0
EOF
